<?xml version='1.0' encoding='utf-8'?>
<svg xmlns="http://www.w3.org/2000/svg" width="1920" height="1080" viewBox="0 0 1920 1080" data-theme="dark" data-semantic-intent="taxonomy_list" data-relation-type="reference" data-site-visual-identity="signal-cobalt">
  <style>
        @font-face {
            font-family: 'Inter';
            src: url('assets/fonts/Inter-Regular.ttf') format('truetype');
            font-weight: 400;
            font-style: normal;
            font-display: swap;
        }
        @font-face {
            font-family: 'Inter';
            src: url('assets/fonts/Inter-Bold.ttf') format('truetype');
            font-weight: 600;
            font-style: normal;
            font-display: swap;
        }
        @font-face {
            font-family: 'Inter';
            src: url('assets/fonts/Inter-Bold.ttf') format('truetype');
            font-weight: 800;
            font-style: normal;
            font-display: swap;
        }
        
:root {
    --background: #0f172a;
    --panel: #1e293b;
    --primary-text: #f1f5f9;
    --muted-text: #94a3b8;
    --inverse-text: #0f172a;
    --border: #334155;
    --shadow-color: #000000;
    --icon-pad-bg: #1e293b;
    --art-glow: #7dd3fc;
    --art-glow-opacity: 0.18;
    --art-sheen: #ffffff;
    --art-sheen-opacity: 0.18;
    --art-shadow: #000000;
    --art-shadow-opacity: 0.28;
    --art-muted-line: #64748b;
    --art-panel-tint: #1e293b;
    --semantic-risk: #f87171;
    --semantic-warning: #fb923c;
    --semantic-uncertain: #fbbf24;
    --semantic-evidence: #60a5fa;
    --semantic-claim: #c084fc;
    --semantic-positive: #4ade80;
    --semantic-outcome: #22d3ee;
    --font-family: 'Inter', 'Segoe UI', 'Kalam', Roboto, Helvetica, Arial, sans-serif;
    --radius-xl: 16px;
    --font-family-headline: 'Segoe UI Variable Display', 'Aptos Display', 'Inter', 'Segoe UI', Helvetica, Arial, sans-serif;
    --font-family-body: 'Segoe UI Variable Text', 'Aptos', 'Inter', 'Segoe UI', Helvetica, Arial, sans-serif;
    --font-heading: var(--font-family-headline);
    --font-body: var(--font-family-body);
    --font-size-h1: 64px;
    --font-size-h2: 42px;
    --font-size-h3: 29px;
    --font-size-body: 21px;
    --font-size-caption: 17px;
    --secondary-text: var(--muted-text);
    --panel-border: var(--border);
    --font-weight-normal: 400;
    --font-weight-medium: 500;
    --font-weight-semibold: 600;
    --font-weight-bold: 700;
    --spacing-gutter-pct: 0.07;
    --spacing-top-pct: 0.15;
    --spacing-bottom-pct: 0.07;
    --spacing-title-y-pct: 0.055;
    --accent-1: #93c5fd;
    --accent-2: #60a5fa;
    --accent-3: #818cf8;
    --accent-4: #a78bfa;
    --accent-5: #38bdf8;
    --accent-6: #fb923c;
}
:root[data-theme="dark"] {
    --background: #0f172a;
    --panel: #1e293b;
    --primary-text: #f1f5f9;
    --muted-text: #94a3b8;
    --inverse-text: #0f172a;
    --border: #334155;
    --shadow-color: #000000;
    --icon-pad-bg: #1e293b;
    --art-glow: #7dd3fc;
    --art-glow-opacity: 0.18;
    --art-sheen: #ffffff;
    --art-sheen-opacity: 0.18;
    --art-shadow: #000000;
    --art-shadow-opacity: 0.28;
    --art-muted-line: #64748b;
    --art-panel-tint: #1e293b;
    --semantic-risk: #f87171;
    --semantic-warning: #fb923c;
    --semantic-uncertain: #fbbf24;
    --semantic-evidence: #60a5fa;
    --semantic-claim: #c084fc;
    --semantic-positive: #4ade80;
    --semantic-outcome: #22d3ee;
    --accent-1: #93c5fd;
    --accent-2: #60a5fa;
    --accent-3: #818cf8;
    --accent-4: #a78bfa;
    --accent-5: #38bdf8;
    --accent-6: #fb923c;
}
:root[data-theme="light"] {
    --background: #f8fafc;
    --panel: #ffffff;
    --primary-text: #0f172a;
    --muted-text: #64748b;
    --inverse-text: #ffffff;
    --border: #e2e8f0;
    --shadow-color: #000000;
    --icon-pad-bg: #1e293b;
    --art-glow: #0891b2;
    --art-glow-opacity: 0.10;
    --art-sheen: #ffffff;
    --art-sheen-opacity: 0.34;
    --art-shadow: #0f172a;
    --art-shadow-opacity: 0.14;
    --art-muted-line: #94a3b8;
    --art-panel-tint: #f1f5f9;
    --semantic-risk: #b91c1c;
    --semantic-warning: #c2410c;
    --semantic-uncertain: #a16207;
    --semantic-evidence: #1d4ed8;
    --semantic-claim: #6d28d9;
    --semantic-positive: #15803d;
    --semantic-outcome: #0e7490;
    --accent-1: #1d4ed8;
    --accent-2: #2563eb;
    --accent-3: #4f46e5;
    --accent-4: #6d28d9;
    --accent-5: #0369a1;
    --accent-6: #c2410c;
}</style>
  <rect x="0" y="0" width="1.92E+3" height="1.08E+3" fill="#0f172a" stroke="none" id="programmatic_background"/>
  <line id="HEADER_DECOR" x1="960.0" x2="1080.0" y1="135.0" y2="135.0" stroke="var(--accent-1)" stroke-width="6" stroke-linecap="round"/>
  <defs>
    <pattern id="svgae02e36c-napkin-hatch" patternUnits="userSpaceOnUse" width="12" height="12">
      <path d="M -3 12 L 12 -3 M 0 15 L 15 0" fill="none" stroke="var(--primary-text)" stroke-width="1" stroke-opacity="0.05"/>
    </pattern>
    <filter id="svgae02e36c-shadow" x="-30%" y="-30%" width="160%" height="160%">
      <feDropShadow dx="0" dy="2" stdDeviation="3" flood-color="#000000" flood-opacity="0.08"/>
      <feDropShadow dx="0" dy="6" stdDeviation="10" flood-color="#000000" flood-opacity="0.12"/>
    </filter>
    <marker id="svgae02e36c-arrowhead" markerWidth="10" markerHeight="10" refX="9" refY="5" orient="auto">
      <path d="M 0 0 L 10 5 L 0 10 Z" fill="var(--accent-1)"/>
    </marker>
    <filter id="svgae02e36c-text-glow" x="-20%" y="-20%" width="140%" height="140%">
      <feDropShadow dx="0" dy="0" stdDeviation="2" flood-color="#000000" flood-opacity="0.4"/>
    </filter>
    <radialGradient id="svgae02e36c-universal-edge-vignette" cx="50%" cy="50%" r="72%">
      <stop offset="0%" stop-color="var(--background)" stop-opacity="0"/>
      <stop offset="72%" stop-color="var(--background)" stop-opacity="0.12"/>
      <stop offset="100%" stop-color="var(--primary-text)" stop-opacity="0.08"/>
    </radialGradient>
    <linearGradient id="svgae02e36c-universal-surface-sheen" x1="0%" y1="0%" x2="100%" y2="100%">
      <stop offset="0%" stop-color="var(--art-sheen)" stop-opacity="var(--art-sheen-opacity)"/>
      <stop offset="46%" stop-color="var(--art-sheen)" stop-opacity="0.035"/>
      <stop offset="100%" stop-color="var(--art-panel-tint)" stop-opacity="0.14"/>
    </linearGradient>
    <radialGradient id="svgae02e36c-universal-icon-aura" cx="50%" cy="42%" r="64%">
      <stop offset="0%" stop-color="var(--art-glow)" stop-opacity="var(--art-glow-opacity)"/>
      <stop offset="100%" stop-color="var(--background)" stop-opacity="0"/>
    </radialGradient>
  </defs>
  <rect width="100%" height="100%" fill="var(--background)" id="CANVAS_BG"/>
  <rect width="100%" height="100%" fill="url(#svgae02e36c-napkin-hatch)"/>
  <rect id="UNIVERSAL_EDGE_VIGNETTE" width="100%" height="100%" fill="url(#svgae02e36c-universal-edge-vignette)" opacity="0.62"/>
  <text id="TITLE" x="960.0" y="59" text-anchor="middle" font-weight="700" font-size="72" fill="#f1f5f9" style="font-size: 69px; font-family: 'Segoe UI Variable Display', 'Aptos Display', 'Inter', 'Segoe UI', Helvetica, Arial, sans-serif; font-weight: 800; font-kerning: normal; font-feature-settings: &quot;kern&quot; 1, &quot;liga&quot; 1; letter-spacing:-1.2px;" data-final-font-size="69">
    <tspan x="960.0" dy="70.47px">Visual Language of Unidentified</tspan>
  </text>
  <rect id="TITLE_FRAME" x="134" y="59" width="1652" height="103" fill="none"/>
  <g id="DIAGRAM_SCALER" transform="translate(28.8, 27.0) scale(0.97)">
    <path d="M 960 360 L 960 450" stroke="var(--muted-text)" stroke-width="3.0" fill="none" opacity="0.52"/>
    <path d="M 210.0 450 L 1710.0 450" stroke="var(--muted-text)" stroke-width="3.0" fill="none" opacity="0.52"/>
    <path d="M 210.0 450 L 210.0 570" stroke="var(--muted-text)" stroke-width="3.0" fill="none" opacity="0.52"/>
    <path d="M 693.3 450 L 693.3 570" stroke="var(--muted-text)" stroke-width="3.0" fill="none" opacity="0.52"/>
    <path d="M 1226.7 450 L 1226.7 570" stroke="var(--muted-text)" stroke-width="3.0" fill="none" opacity="0.52"/>
    <path d="M 1710.0 450 L 1710.0 570" stroke="var(--muted-text)" stroke-width="3.0" fill="none" opacity="0.52"/>
    <g transform="translate(960.0, 270.0)">
      <rect id="ITEM_1_BG" x="-210" y="-90" width="420" height="180" rx="24" fill="var(--panel)" fill-opacity="0.86" stroke="var(--primary-text)" stroke-width="2.6"/>
      <circle id="ITEM_1_PAD" cx="0" cy="40" r="42" fill="var(--icon-pad-bg)" stroke="var(--accent-1)" opacity="1" fill-opacity="0.9" stroke-width="2" stroke-opacity="0.72" data-badge-layer="pad"/>
      <circle id="ITEM_1_PAD_INNER" cx="0" cy="40" r="32.76" fill="var(--accent-1)" fill-opacity="0.12" stroke="none" data-badge-layer="tint"/>
      <circle cx="0" cy="40" r="33.6" fill="none" stroke="var(--accent-1)" stroke-width="3" stroke-dasharray="6 4" display="none" data-suppressed-decoration="redundant-badge-ring"/>
      <g id="ITEM_1_ICON" transform="translate(-36.0, 4.0)" data-icon-size="72" stroke-linecap="round" stroke-linejoin="round" data-badge-treatment="clean">
        <g transform="translate(-6.666666666666664,-8.0) scale(2.6666666666666665)">
          <path d="M13 8H11V15H13V8Z" fill="#7D4533"/>
          <path d="M21 8H19V15H21V8Z" fill="#7D4533"/>
          <path d="M6.79089 28.3796L8.36926 20.5854H11.1907L8.59622 28.3796C7.8395 30.8443 6.499 29.8606 6.79089 28.3796Z" fill="#7D4533"/>
          <path d="M23.6307 20.5854L25.2091 28.3796C25.501 29.8606 24.1605 30.8443 23.4038 28.3796L20.8093 20.5854H23.6307Z" fill="#7D4533"/>
          <path d="M11.0009 20.5953L11.1221 25.9824C11.1659 27.515 12.4155 27.3156 12.4732 25.9824L13.0102 20.5953H11.0009Z" fill="#402A32"/>
          <path d="M21 20.5953L20.8788 25.9824C20.8349 27.515 19.5854 27.3156 19.5276 25.9824L18.9907 20.5953H21Z" fill="#402A32"/>
          <path d="M11 3C9.89543 3 9 3.89543 9 5V6C9 7.65685 10.3431 9 12 9H20C21.6569 9 23 7.65685 23 6V5C23 3.89543 22.1046 3 21 3H11Z" fill="#A56953"/>
          <path d="M11 14C9 14 7 17.5 7 19.25C7 20.2165 7.7835 21 8.75 21H23.25C24.2165 21 25 20.2165 25 19.25C25 17.5 23 14 21 14H11Z" fill="#A56953"/>
        </g>
      </g>
      <text id="ITEM_1_HEAD" x="0.0" y="-80.0" text-anchor="middle" font-weight="bold" font-size="36" fill="var(--accent-1)" data-bg-id="ITEM_1_BG" fill-opacity="1.0" stroke="none" style="font-size: 31px; font-family: 'Segoe UI Variable Display', 'Aptos Display', 'Inter', 'Segoe UI', Helvetica, Arial, sans-serif; font-weight: 700; font-kerning: normal; font-feature-settings: &quot;kern&quot; 1, &quot;liga&quot; 1; letter-spacing:-0.4px;" data-final-font-size="31">
        <tspan x="0.0" dy="35.07px">Official Settings</tspan>
      </text>
      <rect id="ITEM_1_HEAD_FRAME" x="-180" y="-80" width="360" height="45" fill="none"/>
    </g>
    <g transform="translate(210.0, 720)">
      <rect id="ITEM_2_BG" x="-180.0" y="-150" width="360" height="390" rx="24" fill="var(--accent-2)" fill-opacity="0.48" stroke="var(--accent-1)" stroke-width="2.6"/>
      <text id="ITEM_2_HEAD" x="0.0" y="8.0" text-anchor="middle" font-weight="bold" font-size="30" fill="var(--primary-text)" data-bg-id="ITEM_2_BG" fill-opacity="1.0" stroke="none" style="font-size: 31px; font-family: 'Segoe UI Variable Display', 'Aptos Display', 'Inter', 'Segoe UI', Helvetica, Arial, sans-serif; font-weight: 700; font-kerning: normal; font-feature-settings: &quot;kern&quot; 1, &quot;liga&quot; 1; letter-spacing:-0.4px;" data-final-font-size="31">
        <tspan x="0.0" dy="49.82px">Technical Artifacts</tspan>
      </text>
      <rect id="ITEM_2_HEAD_FRAME" x="-150.0" y="8" width="300" height="70" fill="none"/>
      <text id="ITEM_2_BODY" x="0.0" y="82.0" text-anchor="middle" font-size="23" fill="var(--primary-text)" opacity="0.94" data-bg-id="ITEM_2_BG" data-max-lines="5" style="font-size: 23px; font-family: 'Segoe UI Variable Text', 'Aptos', 'Inter', 'Segoe UI', Helvetica, Arial, sans-serif; font-weight: 400; font-kerning: normal; font-feature-settings: &quot;kern&quot; 1, &quot;liga&quot; 1;" data-final-font-size="23">
        <tspan x="0.0" dy="33.31px">Maps and radar imagery reinforce</tspan>
        <tspan x="0.0" dy="26.45px">the structured inquiry impression</tspan>
      </text>
      <rect id="ITEM_2_BODY_FRAME" x="-174" y="82" width="348" height="108" fill="none"/>
      <circle id="ITEM_2_PAD" cx="0" cy="-45.0" r="62" fill="var(--icon-pad-bg)" stroke="var(--accent-2)" stroke-width="2" stroke-opacity="0.72" opacity="1" fill-opacity="0.9" data-badge-layer="pad"/>
      <circle id="ITEM_2_PAD_INNER" cx="0" cy="-45.0" r="48.36" fill="var(--accent-2)" fill-opacity="0.12" stroke="none" data-badge-layer="tint"/>
      <circle cx="0" cy="-45.0" r="49.6" fill="none" stroke="var(--accent-1)" stroke-width="3" stroke-dasharray="6 4" display="none" data-suppressed-decoration="redundant-badge-ring"/>
      <g id="ITEM_2_ICON" transform="translate(-48.0, -93.0)" data-icon-size="96" stroke-linecap="round" stroke-linejoin="round" data-badge-treatment="clean">
        <g transform="translate(-7.268571428571429,-7.268571428571434) scale(4.605714285714286)" vector-effect="non-scaling-stroke" stroke-width="2.86" stroke-linecap="round" stroke-linejoin="round" stroke-opacity="1.0">
          <path d="M12 3l9.5 7l-3.5 11h-12l-3.5 -11z" vector-effect="non-scaling-stroke" fill="none" stroke="#f1f5f9"/>
          <path d="M12 7.5l5.5 4l-2.5 5.5h-6.5l-2 -5.5z" vector-effect="non-scaling-stroke" fill="none" stroke="#f1f5f9"/>
          <path d="M2.5 10l9.5 3l9.5 -3" vector-effect="non-scaling-stroke" fill="none" stroke="#f1f5f9"/>
          <path d="M12 3v10l6 8" vector-effect="non-scaling-stroke" fill="none" stroke="#f1f5f9"/>
          <path d="M6 21l6 -8" vector-effect="non-scaling-stroke" fill="none" stroke="#f1f5f9"/>
        </g>
      </g>
    </g>
    <g transform="translate(693.3, 720)">
      <rect id="ITEM_3_BG" x="-180.0" y="-150" width="360" height="390" rx="24" fill="var(--accent-3)" fill-opacity="0.48" stroke="var(--accent-2)" stroke-width="2.6"/>
      <text id="ITEM_3_HEAD" x="0.0" y="8.0" text-anchor="middle" font-weight="bold" font-size="30" fill="var(--primary-text)" data-bg-id="ITEM_3_BG" fill-opacity="1.0" stroke="none" style="font-size: 31px; font-family: 'Segoe UI Variable Display', 'Aptos Display', 'Inter', 'Segoe UI', Helvetica, Arial, sans-serif; font-weight: 700; font-kerning: normal; font-feature-settings: &quot;kern&quot; 1, &quot;liga&quot; 1; letter-spacing:-0.4px;" data-final-font-size="31">
        <tspan x="0.0" dy="49.82px">Group Testimony</tspan>
      </text>
      <rect id="ITEM_3_HEAD_FRAME" x="-150.0" y="8" width="300" height="70" fill="none"/>
      <text id="ITEM_3_BODY" x="0.0" y="82.0" text-anchor="middle" font-size="23" fill="var(--primary-text)" opacity="0.94" data-bg-id="ITEM_3_BG" data-max-lines="5" style="font-size: 23px; font-family: 'Segoe UI Variable Text', 'Aptos', 'Inter', 'Segoe UI', Helvetica, Arial, sans-serif; font-weight: 400; font-kerning: normal; font-feature-settings: &quot;kern&quot; 1, &quot;liga&quot; 1;" data-final-font-size="23">
        <tspan x="0.0" dy="28.02px">Multiple military personnel</tspan>
        <tspan x="0.0" dy="26.45px">provide mutually reinforcing</tspan>
        <tspan x="0.0" dy="26.45px">stories together</tspan>
      </text>
      <rect id="ITEM_3_BODY_FRAME" x="-174" y="82" width="348" height="108" fill="none"/>
      <circle id="ITEM_3_PAD" cx="0" cy="-45.0" r="62" fill="var(--icon-pad-bg)" stroke="var(--accent-3)" stroke-width="2" stroke-opacity="0.72" opacity="1" fill-opacity="0.9" data-badge-layer="pad"/>
      <circle id="ITEM_3_PAD_INNER" cx="0" cy="-45.0" r="48.36" fill="var(--accent-3)" fill-opacity="0.12" stroke="none" data-badge-layer="tint"/>
      <circle cx="0" cy="-45.0" r="49.6" fill="none" stroke="var(--accent-2)" stroke-width="3" stroke-dasharray="6 4" display="none" data-suppressed-decoration="redundant-badge-ring"/>
      <g id="ITEM_3_ICON" transform="translate(-48.0, -93.0)" data-icon-size="96" stroke-linecap="round" stroke-linejoin="round" data-badge-treatment="clean">
        <g transform="translate(-7.268571428571428,-8.995714285714284) scale(3.454285714285714)">
          <path d="M22.5247 17.94C26.6502 17.94 29.9947 14.5956 29.9947 10.47C29.9947 6.34443 26.6502 3 22.5247 3C18.3991 3 15.0547 6.34443 15.0547 10.47C15.0547 14.5956 18.3991 17.94 22.5247 17.94Z" fill="#533566"/>
          <path d="M2.64445 29.2101C1.81445 28.3301 1.78446 26.9601 2.56446 26.0401L15.1045 11.3401L21.2145 17.8201L5.80445 29.4801C4.84445 30.2101 3.47445 30.0901 2.64445 29.2101Z" fill="#9B9B9B"/>
          <path d="M18.9958 4.00515L28.9358 14.5552C29.5958 15.2552 29.5658 16.3552 28.8658 17.0051C28.1658 17.6651 27.0758 17.6352 26.4158 16.9352L16.4758 6.38515C15.8158 5.68515 15.8458 4.59517 16.5458 3.93517C17.2458 3.27517 18.3358 3.30515 18.9958 4.00515ZM15.4146 18.5302C15.4146 19.342 14.7565 20.0002 13.9446 20.0002C13.1328 20.0002 12.4746 19.342 12.4746 18.5302C12.4746 17.7183 13.1328 17.0602 13.9446 17.0602C14.7565 17.0602 15.4146 17.7183 15.4146 18.5302Z" fill="#BEBEBE"/>
        </g>
      </g>
    </g>
    <g transform="translate(1226.7, 720)">
      <rect id="ITEM_4_BG" x="-180.0" y="-150" width="360" height="390" rx="24" fill="var(--accent-1)" fill-opacity="0.48" stroke="var(--accent-3)" stroke-width="2.6"/>
      <text id="ITEM_4_HEAD" x="0.0" y="8.0" text-anchor="middle" font-weight="bold" font-size="30" fill="var(--primary-text)" data-bg-id="ITEM_4_BG" fill-opacity="1.0" stroke="none" style="font-size: 31px; font-family: 'Segoe UI Variable Display', 'Aptos Display', 'Inter', 'Segoe UI', Helvetica, Arial, sans-serif; font-weight: 700; font-kerning: normal; font-feature-settings: &quot;kern&quot; 1, &quot;liga&quot; 1; letter-spacing:-0.4px;" data-final-font-size="31">
        <tspan x="0.0" dy="49.82px">Authenticated Footage</tspan>
      </text>
      <rect id="ITEM_4_HEAD_FRAME" x="-150.0" y="8" width="300" height="70" fill="none"/>
      <text id="ITEM_4_BODY" x="0.0" y="82.0" text-anchor="middle" font-size="23" fill="var(--primary-text)" opacity="0.94" data-bg-id="ITEM_4_BG" data-max-lines="5" style="font-size: 23px; font-family: 'Segoe UI Variable Text', 'Aptos', 'Inter', 'Segoe UI', Helvetica, Arial, sans-serif; font-weight: 400; font-kerning: normal; font-feature-settings: &quot;kern&quot; 1, &quot;liga&quot; 1;" data-final-font-size="23">
        <tspan x="0.0" dy="33.31px">Navy videos are genuine record</tspan>
        <tspan x="0.0" dy="26.45px">ings of unidentified objects</tspan>
      </text>
      <rect id="ITEM_4_BODY_FRAME" x="-174" y="82" width="348" height="108" fill="none"/>
      <circle id="ITEM_4_PAD" cx="0" cy="-45.0" r="62" fill="var(--icon-pad-bg)" stroke="var(--accent-1)" stroke-width="2" stroke-opacity="0.72" opacity="1" fill-opacity="0.9" data-badge-layer="pad"/>
      <circle id="ITEM_4_PAD_INNER" cx="0" cy="-45.0" r="48.36" fill="var(--accent-1)" fill-opacity="0.12" stroke="none" data-badge-layer="tint"/>
      <circle cx="0" cy="-45.0" r="49.6" fill="none" stroke="var(--accent-3)" stroke-width="3" stroke-dasharray="6 4" display="none" data-suppressed-decoration="redundant-badge-ring"/>
      <g id="ITEM_4_ICON" transform="translate(-48.0, -93.0)" data-icon-size="96" stroke-linecap="round" stroke-linejoin="round" data-badge-treatment="clean">
        <g transform="translate(-11.106666666666666,-9.315555555555552) scale(0.4477777777777778)" vector-effect="non-scaling-stroke" stroke-width="2.86" stroke-linecap="round" stroke-linejoin="round" stroke-opacity="1.0">
          <circle cx="128" cy="128" r="96" fill="none" stroke="#f1f5f9" vector-effect="non-scaling-stroke"/>
          <line x1="128" y1="224" x2="232" y2="224" fill="none" stroke="#f1f5f9" vector-effect="non-scaling-stroke"/>
          <circle cx="128" cy="80" r="16" fill="none" stroke="#f1f5f9" vector-effect="non-scaling-stroke"/>
          <circle cx="128" cy="176" r="16" fill="none" stroke="#f1f5f9" vector-effect="non-scaling-stroke"/>
          <circle cx="176" cy="128" r="16" fill="none" stroke="#f1f5f9" vector-effect="non-scaling-stroke"/>
          <circle cx="80" cy="128" r="16" fill="none" stroke="#f1f5f9" vector-effect="non-scaling-stroke"/>
        </g>
      </g>
    </g>
    <g transform="translate(1710.0, 720)">
      <rect id="ITEM_5_BG" x="-180.0" y="-150" width="360" height="390" rx="24" fill="var(--accent-2)" fill-opacity="0.48" stroke="var(--accent-4)" stroke-width="2.6"/>
      <text id="ITEM_5_HEAD" x="0.0" y="8.0" text-anchor="middle" font-weight="bold" font-size="30" fill="var(--primary-text)" data-bg-id="ITEM_5_BG" fill-opacity="1.0" stroke="none" style="font-size: 31px; font-family: 'Segoe UI Variable Display', 'Aptos Display', 'Inter', 'Segoe UI', Helvetica, Arial, sans-serif; font-weight: 700; font-kerning: normal; font-feature-settings: &quot;kern&quot; 1, &quot;liga&quot; 1; letter-spacing:-0.4px;" data-final-font-size="31">
        <tspan x="0.0" dy="33.55px">Institutional</tspan>
        <tspan x="0.0" dy="32.55px">Convergence</tspan>
      </text>
      <rect id="ITEM_5_HEAD_FRAME" x="-150.0" y="8" width="300" height="70" fill="none"/>
      <text id="ITEM_5_BODY" x="0.0" y="82.0" text-anchor="middle" font-size="23" fill="var(--primary-text)" opacity="0.94" data-bg-id="ITEM_5_BG" data-max-lines="5" style="font-size: 23px; font-family: 'Segoe UI Variable Text', 'Aptos', 'Inter', 'Segoe UI', Helvetica, Arial, sans-serif; font-weight: 400; font-kerning: normal; font-feature-settings: &quot;kern&quot; 1, &quot;liga&quot; 1;" data-final-font-size="23">
        <tspan x="0.0" dy="28.02px">Narrative suggests respected</tspan>
        <tspan x="0.0" dy="26.45px">institutions are moving</tspan>
        <tspan x="0.0" dy="26.45px">toward shared underst and ing</tspan>
      </text>
      <rect id="ITEM_5_BODY_FRAME" x="-174" y="82" width="348" height="108" fill="none"/>
      <circle id="ITEM_5_PAD" cx="0" cy="-45.0" r="62" fill="var(--icon-pad-bg)" stroke="var(--accent-2)" stroke-width="2" stroke-opacity="0.72" opacity="1" fill-opacity="0.9" data-badge-layer="pad"/>
      <circle id="ITEM_5_PAD_INNER" cx="0" cy="-45.0" r="48.36" fill="var(--accent-2)" fill-opacity="0.12" stroke="none" data-badge-layer="tint"/>
      <circle cx="0" cy="-45.0" r="49.6" fill="none" stroke="var(--accent-4)" stroke-width="3" stroke-dasharray="6 4" display="none" data-suppressed-decoration="redundant-badge-ring"/>
      <g id="ITEM_5_ICON" transform="translate(-48.0, -93.0)" data-icon-size="96" stroke-linecap="round" stroke-linejoin="round" data-badge-treatment="clean">
        <g transform="translate(-7.268571428571428,-15.90428571428571) scale(3.454285714285714)">
          <path d="M3.94531 26.7454V23.0032H7.96875V27.0297C7.96875 28.2922 6.03125 28.9954 5.23438 28.9954H2.53125C2.35417 29.0318 2 28.8704 2 28.4954C2 28.1204 2.27747 28.0621 2.53125 28.0266C3.3125 27.9172 3.80469 27.2454 3.94531 26.7454Z" fill="#636363"/>
          <path d="M11.78 29.0003C6.38 29.0003 2 24.6203 2 19.2203V14.5803C2 11.0003 4.86 8.03025 8.44 8.00025C11.89 7.97025 14.72 10.6203 14.98 14.0003C15.1512 15.5413 16.1247 16.8478 17.4633 17.5182L19 19L20.7296 17.8299C22.6308 17.2831 24 15.5007 24 13.4403V11.1303C24 10.4503 24.71 10.0103 25.33 10.3103C26.32 10.8003 27 11.8203 27 13.0003C27 11.8203 27.68 10.8003 28.67 10.3103C29.29 10.0003 30 10.4503 30 11.1303V14.8803C30 18.1193 29.2429 21.1306 27.7931 23.5332L23 27L18.25 28.9983C18.1671 28.9997 18.0837 29.0004 18 29.0003L15.125 29L12.5 28.5L11.78 29.0003Z" fill="#9B9B9B"/>
          <path d="M7.11 14.0002H10.02C10.98 14.0002 11.76 14.7802 11.75 15.7402C11.75 16.7002 10.97 17.4802 10.01 17.4802C9.41 17.4802 8.87 17.1702 8.56 16.7002C8.25 17.1702 7.72 17.4802 7.11 17.4802C6.15 17.4802 5.37 16.7002 5.37 15.7402C5.37 14.7802 6.15 14.0002 7.11 14.0002Z" fill="#D3D3D3"/>
          <path d="M11.61 24.9904V21.2304C11.61 19.5604 10.29 18.1604 8.61999 18.1304C6.90999 18.1004 5.51999 19.4804 5.51999 21.1704V22.7504C5.51999 26.1804 8.27999 28.9704 11.71 29.0004H15.63C13.41 29.0004 11.61 27.2004 11.61 24.9904Z" fill="#D3D3D3"/>
          <path d="M16.62 22.3982V26.5002C16.62 27.3202 17.29 27.9902 18.11 27.9902C18.39 27.9902 18.61 28.2102 18.61 28.4902C18.61 28.7664 18.3958 28.9938 18.1211 28.9998C22.56 28.9666 25.8532 26.7911 27.8321 23.468L28.1172 22.9648C27.8242 23.21 27.3078 23.6067 27.0446 23.8339C25.1684 25.4537 23.8531 26.5892 20.3125 26.8266C18.0593 26.9297 17.342 24.5942 16.9235 23.2313C16.8083 22.8562 16.7157 22.5548 16.62 22.3982Z" fill="#D3D3D3"/>
          <path d="M18.1033 28.9999H16.4812L18 29.0002C18.0345 29.0002 18.069 29.0001 18.1033 28.9999Z" fill="#D3D3D3"/>
          <path d="M6.81 13.2102C6.81 13.6244 6.47421 13.9602 6.06 13.9602C5.64578 13.9602 5.31 13.6244 5.31 13.2102C5.31 12.796 5.64578 12.4602 6.06 12.4602C6.47421 12.4602 6.81 12.796 6.81 13.2102Z" fill="#1C1C1C"/>
          <path d="M11.07 13.9602C11.4842 13.9602 11.82 13.6244 11.82 13.2102C11.82 12.796 11.4842 12.4602 11.07 12.4602C10.6558 12.4602 10.32 12.796 10.32 13.2102C10.32 13.6244 10.6558 13.9602 11.07 13.9602Z" fill="#1C1C1C"/>
          <path d="M8.18999 15.6502L7.38999 14.9902C7.25999 14.8802 7.18999 14.7202 7.18999 14.5602C7.18999 14.2502 7.43999 14.0002 7.74999 14.0002H9.37999C9.68999 14.0002 9.93999 14.2502 9.93999 14.5602C9.93999 14.7302 9.85999 14.8902 9.73999 14.9902L8.93999 15.6502C8.71999 15.8302 8.40999 15.8302 8.18999 15.6502Z" fill="#1C1C1C"/>
          <path d="M20.89 18.4903C20.89 19.5203 20.06 20.3503 19.03 20.3503C18 20.3503 17.17 19.5203 17.16 18.4903C17.16 18.1303 17.26 17.8003 17.44 17.5103C18.06 17.8203 18.75 18.0003 19.49 18.0003H19.62C20.02 17.9903 20.4 17.9303 20.76 17.8203C20.84 18.0203 20.89 18.2503 20.89 18.4903Z" fill="#636363"/>
          <path d="M24.71 19.4903C24.71 20.1199 24.1996 20.6303 23.57 20.6303C22.9404 20.6303 22.43 20.1199 22.43 19.4903C22.43 18.8607 22.9404 18.3503 23.57 18.3503C24.1996 18.3503 24.71 18.8607 24.71 19.4903Z" fill="#636363"/>
        </g>
      </g>
    </g>
  </g>
  <text id="SOURCE_NOTE" x="134.0" y="1058.0" fill="var(--muted-text)" opacity="1" style="font-family: var(--font-family); font-size: 20px;">Source: UFO Books Imminent (Elizondo) Review — A Pentagon UFO Program Insider's Memoir</text>
</svg>
